<?xml version="1.0" standalone="no"?>
<!DOCTYPE svg PUBLIC "-//W3C//DTD SVG 20010904//EN"
 "http://www.w3.org/TR/2001/REC-SVG-20010904/DTD/svg10.dtd">
<svg version="1.0" xmlns="http://www.w3.org/2000/svg"
 width="80.000000pt" height="80.000000pt" viewBox="0 0 80.000000 80.000000"
 preserveAspectRatio="xMidYMid meet">
<metadata>
Created by potrace 1.14, written by Peter Selinger 2001-2017
</metadata>
<g transform="translate(0.000000,80.000000) scale(0.100000,-0.100000)"
fill="#000000" stroke="none">
<path d="M436 771 c-9 -10 -14 -25 -10 -35 9 -24 -46 -82 -61 -64 -33 40 -116
111 -122 105 -4 -4 21 -36 55 -70 l61 -62 -49 -52 c-55 -58 -58 -67 -32 -82
14 -8 26 -1 62 34 25 24 50 41 55 37 6 -4 21 -22 34 -39 24 -35 51 -42 71 -18
11 14 6 55 -8 55 -4 0 -20 12 -35 26 -27 25 -27 27 -11 45 9 10 29 19 44 19
30 0 60 27 60 53 0 21 -9 21 -31 1 -20 -18 -49 -12 -49 9 0 8 7 20 15 27 8 7
15 16 15 21 0 16 -47 9 -64 -10z"/>
<path d="M295 464 c-5 -1 -22 -5 -36 -8 -20 -4 -34 -21 -58 -70 l-31 -64 -39
5 c-25 3 -41 1 -46 -7 -9 -15 12 -30 44 -30 l25 0 -30 -31 c-27 -28 -29 -37
-33 -120 -3 -100 4 -119 50 -119 24 0 31 5 35 29 l6 28 221 -1 221 -1 6 -25
c4 -18 13 -26 34 -28 45 -6 54 11 55 100 1 82 -6 106 -42 146 l-20 22 24 0
c13 0 30 4 37 9 21 13 -13 34 -48 29 -29 -4 -33 -1 -61 58 -19 40 -39 66 -52
70 -21 7 -242 14 -262 8z m263 -46 c6 -7 19 -37 30 -65 l20 -53 -204 0 c-112
0 -204 1 -204 3 0 4 42 112 46 119 9 14 300 10 312 -4z m-310 -211 c24 -19 11
-27 -43 -27 -56 0 -69 12 -44 37 13 13 66 7 87 -10z m398 15 c6 -4 13 -15 17
-24 6 -16 -1 -18 -53 -18 -49 0 -58 3 -54 15 4 8 20 19 38 24 41 12 39 12 52
3z"/>
</g>
</svg>
